<?xml version="1.0" standalone="no"?>
<!DOCTYPE svg PUBLIC "-//W3C//DTD SVG 1.1//EN" "http://www.w3.org/Graphics/SVG/1.1/DTD/svg11.dtd">
<svg width="100%" height="100%" viewBox="0 0 4800 3200" version="1.1" xmlns="http://www.w3.org/2000/svg" xmlns:xlink="http://www.w3.org/1999/xlink" xml:space="preserve" style="fill-rule:evenodd;clip-rule:evenodd;stroke-linecap:round;stroke-linejoin:round;stroke-miterlimit:1.41421;">
    <g transform="matrix(0.666667,0,0,0.666667,-0,-0)">
        <g id="UK" transform="matrix(4.07736,0,0,4.07736,929.005,-1297.26)">
            <path d="M1132.51,764.182C1131.69,762.694 1130.01,759.699 1130.51,758.802C1131.01,757.906 1134.21,759.834 1135.53,758.802C1136.93,757.706 1137.62,753.231 1138.9,752.222C1140.05,751.325 1142.68,751.825 1143.23,752.75C1143.78,753.674 1141.52,756.838 1142.22,757.769C1142.92,758.7 1146.5,757.512 1147.45,758.338C1148.4,759.164 1148.33,761.309 1147.93,762.726C1147.53,764.174 1145.82,765.81 1145,767.03C1144.33,768.031 1142.52,769.516 1143,770.047C1143.47,770.578 1146.87,769.608 1147.85,770.216C1148.82,770.824 1148.3,772.618 1148.84,773.695C1149.48,774.968 1150.66,776.635 1151.69,777.852C1152.67,779.015 1153.94,779.905 1155,780.996C1156.25,782.276 1157.9,784.214 1159.16,785.532C1160.25,786.682 1161.89,787.619 1162.51,788.905C1163.13,790.192 1163.18,791.947 1162.87,793.251C1162.56,794.556 1160.39,795.523 1160.65,796.733C1160.92,797.943 1164.89,799.497 1164.47,800.51C1164.05,801.523 1160.34,802.406 1158.12,802.81C1155.58,803.274 1151.49,802.888 1149.2,803.296C1147.49,803.6 1145.57,804.182 1144.37,805.258C1143.17,806.334 1142.5,809.816 1142.03,809.752C1141.56,809.689 1142.32,805.385 1141.54,804.879C1140.77,804.373 1137.73,807.006 1137.37,806.715C1137,806.423 1138.29,803.969 1139.37,803.129C1140.57,802.201 1144.38,801.894 1144.54,801.145C1144.7,800.396 1141.72,799.222 1140.32,798.635C1139,798.08 1136.14,798.293 1136.14,797.622C1136.14,796.951 1139.24,795.746 1140.32,794.607C1141.35,793.528 1142.13,792.188 1142.64,790.788C1143.36,788.805 1144.62,784.87 1144.64,782.708C1144.66,780.964 1143.71,778.716 1142.79,777.816C1141.91,776.956 1139.91,778.164 1139.14,777.31C1138.37,776.455 1138.37,773.955 1138.15,772.688C1137.98,771.705 1138.26,770.54 1137.81,769.713C1137.36,768.887 1136.17,768.469 1135.47,767.73C1134.59,766.808 1133.26,765.527 1132.51,764.182Z" style="fill:none;stroke-width:6.13px;stroke:rgb(226,163,34);"/>
        </g>
        <g id="UK1" transform="matrix(4.07736,0,0,4.07736,918.876,-1316.5)">
            <path d="M1114.76,796.325L1117.61,791.095C1117.61,791.095 1121.28,788.767 1121.15,787.93C1121.02,787.094 1117.57,787.143 1116.82,786.074C1116.08,785.005 1115.58,782.277 1116.7,781.517C1117.82,780.758 1122.49,782.582 1123.55,781.517C1124.61,780.452 1122.35,776.136 1123.05,775.127C1123.74,774.118 1126.16,775.465 1127.73,775.465C1129.31,775.465 1131.56,774.652 1132.56,775.127C1133.56,775.602 1133.88,777.194 1133.72,778.313C1133.44,780.267 1131.65,784.429 1130.89,786.855C1130.28,788.844 1130.56,791.283 1129.21,792.868C1127.76,794.566 1124.63,796.468 1122.22,797.044C1119.82,797.62 1114.76,796.325 1114.76,796.325Z" style="fill:none;stroke-width:6.13px;stroke:rgb(226,163,34);"/>
        </g>
        <g id="Canada" transform="matrix(6.14251,0,0,6.14251,-848.086,-3314.03)">
            <path d="M592.55,681.229C592.704,678.932 597.825,673.177 600.121,668.953C602.593,664.407 605.701,656.838 607.378,653.956C607.986,652.91 609.558,652.691 610.183,651.655C610.9,650.467 610.974,648.355 611.681,646.824C613.449,642.995 617.648,634.488 620.794,628.684C623.865,623.019 627.395,617.613 630.56,611.999C633.805,606.244 637.805,598.686 640.263,594.154C641.95,591.043 643.473,585.692 645.305,584.809C647.136,583.927 650.176,587.237 651.252,588.858C652.302,590.44 650.591,593.034 651.758,594.533C653.104,596.263 657.654,597.621 659.331,599.238C660.671,600.53 659.966,604.081 661.821,604.236C664.799,604.486 673.382,601.709 677.2,600.736C679.747,600.086 682.177,599.02 684.73,598.394C687.352,597.75 690.648,597.712 692.937,596.875C694.985,596.126 697.372,594.878 698.462,593.373C699.552,591.868 699.443,586.906 699.475,587.845C699.506,588.784 698.283,596.043 698.652,599.006C698.952,601.416 700.434,605.744 701.69,605.628C702.945,605.512 705.519,598.129 706.184,598.309C706.848,598.488 704.672,605.638 705.677,606.703C706.683,607.768 710.435,604.871 712.217,604.699C713.633,604.562 715.339,604.692 716.372,605.67C717.48,606.718 717.499,609.582 718.862,610.987C720.339,612.509 723.338,613.508 725.233,614.806C726.989,616.008 728.476,617.946 730.234,618.773C731.933,619.572 734.687,618.735 735.78,619.764C736.873,620.794 737.264,623.666 736.793,624.953C736.321,626.239 734.246,626.661 732.953,627.484C731.367,628.493 727.279,629.833 727.279,631.007C727.279,632.182 730.803,633.952 732.953,634.53C735.867,635.314 742.268,635.598 744.764,635.71C745.832,635.758 747.31,634.333 747.929,635.204C748.626,636.181 748.486,639.473 748.942,641.575C749.445,643.892 749.923,648.601 750.946,649.107C751.97,649.613 754.286,646.487 755.082,644.613C755.933,642.608 754.685,638.642 756.053,637.081C757.42,635.52 761.1,635.885 763.287,635.245C765.276,634.664 767.946,632.828 769.173,633.243C770.4,633.658 769.584,636.574 770.65,637.735C771.719,638.899 774.6,639.279 775.588,640.225C776.391,640.994 775.856,642.566 776.58,643.411C777.441,644.416 779.5,645.84 780.755,646.259C781.821,646.614 782.987,645.971 784.11,645.921C786.012,645.837 790.316,646.716 792.169,645.752C794.021,644.789 794.16,640.602 795.225,640.141C796.29,639.681 797.165,642.55 798.559,642.99C800.064,643.464 804.129,642.441 804.255,642.99C804.382,643.538 800.4,644.626 799.317,646.281C798.136,648.089 796.543,652.575 797.165,653.834C797.787,655.093 801.905,655.005 803.051,653.834C804.197,652.663 802.735,648.419 804.043,646.809C805.351,645.198 808.863,645.532 810.898,644.171C812.937,642.807 815.381,640.359 816.277,638.623C817.022,637.18 816.924,635.241 816.277,633.751C815.595,632.18 813.083,631.028 812.183,629.194C811.192,627.173 809.965,624.119 810.327,621.623C810.689,619.127 812.557,616.376 814.356,614.218C816.315,611.87 820.294,608.284 822.076,607.532C823.207,607.054 824.744,608.516 825.051,609.705C825.839,612.756 827.312,622.317 826.801,625.84C826.47,628.129 822.451,629.304 821.991,630.84C821.542,632.338 822.887,634.356 824.037,635.06C825.186,635.763 828.749,634.054 828.889,635.06C829.03,636.065 825.63,639.102 824.881,641.091C824.185,642.94 823.33,647.554 824.395,646.998C825.46,646.443 829.956,638.554 831.271,637.76C832.579,636.969 832.21,640.705 832.283,642.231C832.371,644.045 832.1,646.707 831.798,648.644C831.522,650.415 830.275,652.132 830.469,653.855C830.662,655.578 831.995,658.85 832.959,658.981C833.922,659.111 835.232,656.141 836.25,654.636C837.664,652.548 839.433,648.455 841.44,646.45C843.294,644.6 847.293,644.347 848.295,642.61C849.297,640.874 846.667,637.208 847.451,636.03C848.236,634.853 851.632,635.264 853,635.545C854.121,635.776 854.99,636.789 855.658,637.718C856.808,639.318 859.61,643.149 859.898,645.142C860.146,646.852 858.274,649.171 857.388,649.678C856.502,650.184 854.962,647.19 854.581,648.18C854.11,649.406 854.648,654.806 854.56,657.039C854.501,658.559 854.956,660.35 854.054,661.575C852.964,663.055 850.031,664.81 848.02,665.921C846.135,666.963 843.665,667.855 841.988,668.242C840.68,668.544 839.098,668.625 837.959,668.242C836.82,667.858 836.25,665.932 835.152,665.942C834.055,665.952 832.472,667.302 831.375,668.302C830.253,669.326 829.518,671.039 828.421,672.08C827.359,673.087 826.243,674.736 824.791,674.549C822.636,674.271 815.612,669.787 815.488,670.413C815.365,671.039 823.159,676.179 824.052,678.303C824.803,680.09 822.119,681.693 820.847,683.156C819.539,684.66 817.851,686.941 816.205,687.331C814.56,687.721 812.345,685.387 810.974,685.496C809.679,685.599 808.966,687.18 807.977,687.985C807.008,688.776 805.797,689.328 805.044,690.327C804.249,691.382 804.235,693.404 803.208,694.315C802.182,695.226 800.17,694.975 798.885,695.792C797.222,696.851 794.986,698.902 793.23,700.666C790.833,703.074 787.184,707.018 784.498,710.242C781.886,713.377 778.292,716.899 777.114,720.007C776.064,722.777 776.534,727.574 777.431,728.889C778.328,730.204 781.819,727.142 782.494,727.897C783.169,728.653 781.481,731.551 781.481,733.423C781.481,735.494 783.215,738.834 782.494,740.322C781.773,741.809 776.71,742.125 777.156,742.347C777.602,742.568 782.665,741.77 785.171,741.651C787.511,741.539 790.175,740.448 792.197,741.63C794.381,742.906 796.36,747.248 798.273,749.308C799.893,751.054 801.725,752.618 803.671,753.992C805.844,755.525 808.839,757.782 811.307,758.507C813.602,759.18 817.456,757.223 818.479,758.338C819.502,759.452 817.502,763.02 817.445,765.193C817.392,767.265 818.802,769.629 818.141,771.373C817.48,773.116 813.893,774.292 813.478,775.656C813.064,777.02 814.897,778.274 815.652,779.557C816.46,780.931 817.55,782.567 818.331,783.903C819.034,785.107 818.968,787.3 820.335,787.574C821.738,787.855 825.19,787.197 826.746,785.59C828.307,783.98 829.339,780.63 829.701,777.911C830.14,774.609 828.431,768.672 829.384,765.782C830.216,763.259 833.282,762.153 835.418,760.573C837.766,758.837 841.323,756.481 843.475,755.363C844.977,754.582 848.004,754.536 848.328,753.865C848.651,753.193 845.585,752.608 845.415,751.333C845.235,749.987 847.195,747.733 847.25,745.787C847.31,743.695 846.568,740.505 845.773,738.782C845.119,737.364 842.39,736.697 842.481,735.448C842.573,734.2 845.087,732.649 846.321,731.292C847.521,729.973 849.482,729.042 849.886,727.306C850.393,725.13 848.863,720.748 849.359,718.234C849.808,715.959 852.471,714.115 852.861,712.223C853.229,710.44 851.307,708.165 851.701,706.885C852.094,705.605 853.816,704.443 855.222,704.543C856.702,704.649 858.645,706.866 860.581,707.519C862.533,708.176 865.314,708.328 866.932,708.489C868.043,708.601 869.474,707.72 870.284,708.489C871.261,709.418 871.993,712.354 872.795,714.059C873.532,715.627 873.575,717.887 875.095,718.72C876.821,719.665 882.222,718.642 883.154,719.732C884.086,720.822 881.323,723.345 880.685,725.26C879.936,727.506 878.519,731.049 878.66,733.211C878.785,735.134 880.495,736.836 881.529,738.232C882.466,739.499 883.359,741.164 884.86,741.586C886.362,742.008 888.988,741.885 890.536,740.763C892.463,739.367 894.548,735.784 896.422,733.211C898.293,730.641 900.633,724.992 901.779,725.322C902.925,725.653 902.931,731.885 903.298,735.194C903.695,738.78 903.459,743.975 904.162,746.837C904.677,748.93 907.295,750.659 907.517,752.365C907.737,754.058 905.145,755.397 905.492,757.069C905.91,759.091 908.171,762.327 910.027,764.493C911.883,766.658 916.987,767.721 916.628,770.062C916.269,772.403 907.151,777.964 907.875,778.54C908.599,779.116 918.373,773.607 920.974,773.519C922.689,773.461 922.863,776.414 923.485,778.013C924.318,780.158 926.256,784.109 925.975,786.387C925.699,788.618 923.84,790.742 921.797,791.683C919.705,792.647 915.601,791.289 913.422,792.169C911.347,793.006 910.837,796.238 908.719,796.958C905.636,798.006 899.546,798.29 894.924,798.456C890.234,798.625 884.005,797.718 880.581,797.971C878.414,798.131 875.742,799.058 874.378,799.975C873.265,800.724 873.365,802.729 872.395,803.478C871.424,804.226 869.708,803.819 868.557,804.468C866.521,805.614 861.911,808.63 860.181,810.353C859.028,811.502 856.886,815.045 858.177,814.806C859.467,814.567 864.59,810.519 867.923,808.92C871.2,807.348 875.46,805.662 878.174,805.209C880.184,804.873 883.113,805.255 884.206,806.201C885.299,807.146 885.528,809.554 884.733,810.883C883.939,812.211 880.241,812.747 879.439,814.174C878.638,815.602 879.219,817.838 879.925,819.448C880.631,821.057 882.048,822.876 883.675,823.832C885.303,824.788 887.635,825.256 889.688,825.182C891.847,825.105 894.999,824.387 896.627,823.367C898.081,822.456 898.649,818.462 899.454,819.063C900.259,819.664 902.211,825.265 901.458,826.974C900.706,828.682 897.133,828.594 894.939,829.314C892.316,830.175 888.038,831.171 885.721,832.141C884.012,832.857 882.622,834.176 881.038,835.137C879.392,836.136 877.187,838.362 875.848,838.133C874.508,837.905 872.365,835.362 873.001,833.766C873.638,832.17 880.145,829.489 879.667,828.557C879.188,827.626 871.887,829.085 870.132,828.178C868.605,827.388 869.482,824.801 869.141,823.115C868.726,821.069 868.859,816.608 867.643,815.902C866.426,815.196 863.553,817.539 861.84,818.877C860.075,820.255 858.847,822.709 857.05,824.171C855.259,825.629 853.305,827.111 851.06,827.653C848.307,828.317 843.144,827.938 840.532,828.159C838.801,828.306 837.013,828.373 835.386,828.982C833.61,829.647 831.848,831.676 829.879,832.147C827.91,832.618 825.663,831.572 823.57,831.809C821.373,832.059 818.28,832.706 816.694,833.645C815.368,834.43 814.827,836.142 814.057,837.443C813.298,838.725 813.467,840.922 812.073,841.45C810.466,842.058 806.777,840.903 804.414,841.093C802.193,841.272 797.908,843.229 797.897,842.59C797.887,841.95 802.805,839.57 804.352,837.253C805.899,834.937 806.047,829.922 807.179,828.688C808.111,827.673 810.292,830.773 811.146,829.849C812.001,828.924 813.431,824.924 812.307,823.142C811.182,821.359 806.869,819.987 804.397,819.154C802.189,818.409 798.828,819.79 797.478,818.141C796.128,816.493 797.436,811.072 796.297,809.261C795.233,807.571 791.806,808.466 790.642,807.278C789.478,806.089 790.806,803.087 789.315,802.129C787.585,801.018 782.662,800.227 780.264,800.611C778.104,800.956 776.628,803.793 774.926,804.43C773.405,804.999 771.624,804.847 770.055,804.43C766.736,803.547 760.106,800.58 755.016,799.135C749.928,797.691 744.747,796.515 739.512,795.762C733.479,794.894 725.723,794.472 718.82,793.926C711.041,793.311 701.489,792.782 692.834,792.07C683.94,791.339 673.918,790.298 665.452,789.538C657.65,788.839 647.302,788.02 642.04,787.513C639.311,787.251 635.963,787.689 633.878,786.501C631.794,785.312 630.313,782.563 629.532,780.383C628.751,778.203 630.07,774.834 629.194,773.42C628.319,772.007 625.611,772.984 624.281,771.902C622.562,770.502 619.507,766.662 618.881,765.024C618.479,763.971 619.762,762.899 620.527,762.071C621.42,761.105 623.29,760.303 624.24,759.223C625.15,758.188 626.976,755.664 626.223,755.594C625.471,755.523 620.892,758.829 619.725,758.8C618.587,758.773 619.958,756.289 619.218,755.425C618.382,754.448 614.788,753.853 614.703,752.935C614.619,752.018 617.713,751.149 618.712,749.918C619.711,748.688 621.483,745.889 620.696,745.551C619.908,745.214 614.883,748.505 613.987,747.893C613.09,747.282 614.792,743.608 615.316,741.882C615.772,740.38 616.199,738.8 617.131,737.536C618.157,736.144 621.115,734.719 621.477,733.527C621.839,732.335 619.636,731.613 619.304,730.383C618.942,729.044 619.6,727.095 619.304,725.491C618.973,723.702 617.953,721.243 617.32,719.647C616.81,718.361 615.582,717.295 615.506,715.913C615.375,713.554 616.504,708.295 616.539,705.493C616.566,703.346 616.159,701.181 615.716,699.103C615.275,697.034 615.413,693.681 613.88,693.028C612.348,692.374 608.551,695.405 606.519,695.18C604.542,694.961 602.696,693.392 601.688,691.677C600.467,689.603 600.721,684.476 599.198,682.735C597.702,681.024 592.398,683.496 592.55,681.229Z" style="fill:none;stroke-width:4.07px;stroke:rgb(226,163,34);"/>
        </g>
        <g id="US" transform="matrix(6.16493,0,0,6.16493,-870.387,-3251.91)">
            <path d="M622.986,790.401C623.644,789.389 625.335,792.518 626.509,792.912C627.624,793.286 629.449,792.089 630.033,792.764C630.616,793.439 629.404,797.128 630.012,796.962C630.62,796.797 633.2,793.643 633.681,791.772C634.162,789.902 631.18,786.744 632.9,785.738C634.619,784.733 640.303,785.539 643.997,785.738C648.623,785.988 655.129,786.518 660.659,787.236C667.099,788.073 675.306,790.004 682.64,790.76C689.949,791.513 697.331,791.256 704.661,791.772C712.645,792.335 723.17,793.263 730.543,794.135C736.691,794.862 745.189,796.192 748.895,797.004C750.317,797.316 751.372,798.62 752.776,799.006C754.819,799.569 758.484,799.432 761.15,800.377C764.135,801.436 770.728,803.184 770.686,805.357C770.644,807.53 761.527,812.21 760.898,813.416C760.268,814.622 765.69,812.112 766.911,812.593C768.131,813.074 767.083,816.188 768.219,816.304C769.355,816.42 772.196,814.064 773.726,813.287C774.921,812.68 776.171,812.184 777.397,811.641C778.761,811.036 781.323,809.234 781.91,809.659C782.497,810.085 780.809,812.938 780.918,814.193C781.017,815.329 781.427,817.12 782.564,817.189C784.066,817.281 788.113,814.763 789.927,814.741C791.333,814.725 792.74,816.085 793.45,817.062C794.16,818.039 794.763,820.153 794.19,820.606C793.617,821.06 791.422,819.613 790.013,819.783C787.889,820.04 783.766,820.86 781.449,822.146C779.245,823.37 776.818,825.882 776.111,827.503C775.511,828.879 777.38,830.379 777.209,831.87C776.952,834.11 774.561,838.795 774.571,840.94C774.579,842.493 776.066,844.71 777.272,844.738C778.477,844.766 780.866,842.801 781.806,841.109C782.948,839.052 783.219,834.683 784.127,832.397C784.852,830.571 785.762,828.596 787.25,827.397C788.737,826.198 791.523,825.217 793.052,825.203C794.379,825.191 796.269,825.996 796.427,827.313C796.6,828.748 793.639,832.813 794.086,833.812C794.532,834.811 798.407,832.441 799.107,833.306C799.807,834.171 798.905,837.187 798.284,839.002C797.538,841.182 794.434,844.763 794.634,846.384C794.834,848.005 797.704,848.962 799.484,848.726C802.005,848.392 807.128,845.828 809.758,844.38C811.806,843.252 813.48,841.009 815.263,840.035C816.843,839.172 818.666,838.761 820.453,838.537C822.443,838.288 825.212,839.584 827.203,838.537C829.337,837.416 830.964,833.485 833.256,831.807C835.514,830.156 838.219,829.045 840.957,828.474C844.427,827.75 851.061,828.776 854.077,827.461C856.671,826.331 857.304,822.653 859.055,820.586C860.739,818.597 863.017,813.719 864.582,815.058C866.147,816.397 868.183,825.468 868.443,828.622C868.603,830.559 867.751,832.889 866.143,833.981C864.248,835.268 859.699,834.93 857.073,836.343C854.447,837.757 851.552,840.49 850.385,842.462C849.413,844.104 850.529,846.473 850.068,848.178C849.622,849.83 849.232,852.115 847.62,852.693C845.834,853.333 841.705,851.353 839.353,852.018C837.001,852.682 834.863,854.589 833.508,856.68C832.112,858.836 832.373,863.936 830.977,864.948C829.581,865.96 825.66,862.093 825.133,862.754C824.605,863.415 827.918,867.191 827.812,868.913C827.707,870.635 825.501,873.932 824.499,873.089C823.498,872.245 822.641,863.703 821.801,863.85C820.961,863.998 819.769,871.028 819.459,873.974C819.196,876.483 820.31,879.2 819.945,881.527C819.585,883.815 818.731,886.145 817.265,887.938C815.317,890.322 811.484,893.504 808.256,895.828C805.029,898.152 800.589,899.371 797.899,901.881C795.29,904.316 792.666,907.374 792.117,910.89C791.569,914.406 793.742,919.831 794.607,922.977C795.253,925.325 797.411,927.333 797.307,929.767C797.202,932.246 795.489,937.436 793.974,937.847C792.459,938.258 789.63,934.482 788.217,932.236C786.804,929.99 785.865,926.52 785.496,924.369C785.21,922.704 786.693,920.868 786.002,919.326C785.186,917.509 782.229,913.992 780.601,913.461C778.978,912.932 777.41,916.338 776.236,916.141C775.062,915.944 775.043,912.775 773.557,912.28C771.627,911.637 767.4,912.28 764.654,912.28C762.13,912.28 758.84,911.869 757.082,912.28C755.828,912.574 754.466,913.697 754.107,914.749C753.749,915.8 755.514,917.699 754.93,918.589C754.346,919.478 751.994,920.4 750.605,920.087C749.216,919.774 747.995,917.527 746.596,916.712C745.26,915.932 743.756,915.251 742.21,915.193C739.883,915.105 734.844,915.573 732.632,916.184C731.167,916.59 730.317,918.216 728.942,918.864C727.121,919.722 723.621,919.651 721.706,921.333C719.664,923.126 717.548,927.32 716.687,929.623C716.041,931.349 717.291,934.256 716.539,935.149C715.787,936.041 713.064,936.131 712.172,934.98C710.572,932.916 708.645,926.398 706.94,922.766C705.41,919.507 704.259,914.231 701.942,913.19C699.625,912.15 695.363,916.079 693.039,916.522C691.374,916.839 689.097,917.138 687.999,915.847C686.853,914.501 687.558,910.569 686.163,908.444C684.767,906.317 682.337,903.846 679.623,903.085C676.149,902.111 670.078,902.955 665.322,902.6C660.189,902.216 653.853,902.321 648.826,900.785C643.871,899.271 639.416,895.906 635.158,893.382C631.093,890.972 626.242,887.853 623.282,885.642C621.126,884.031 618.702,882.467 617.396,880.114C615.716,877.087 613.484,870.556 613.2,867.48C613.005,865.377 615.862,862.792 615.689,861.656C615.517,860.52 612.587,861.81 612.166,860.664C611.157,857.919 609.55,848.486 609.635,845.182C609.68,843.415 612.349,842.574 612.673,840.837C613.21,837.951 612.215,831.047 612.862,827.865C613.337,825.531 615.58,823.921 616.554,821.748C617.559,819.505 618.074,816.84 618.894,814.406C619.759,811.839 621.13,808.919 621.742,806.349C622.314,803.946 622.373,801.448 622.565,798.986C622.773,796.328 622.329,791.414 622.986,790.401Z" style="fill:none;stroke-width:4.06px;stroke-linecap:butt;stroke:rgb(226,163,34);"/>
        </g>
        <g id="Scand" transform="matrix(6.11716,0,0,6.11716,-1406.49,-2982.24)">
            <path d="M1174.76,728.654C1176.48,725.615 1184.41,721.411 1187.66,719.365C1189.71,718.076 1192.73,718.239 1194.28,716.377C1196.76,713.395 1200.12,706.615 1202.53,701.471C1204.98,696.223 1206.52,690.279 1209.01,684.892C1211.77,678.897 1214.69,669.915 1219.13,665.502C1223.39,661.274 1232.22,661.555 1235.69,658.416C1238.77,655.622 1238.21,647.936 1239.91,646.67C1241.62,645.405 1245.4,648.983 1245.89,650.823C1246.38,652.663 1242.23,656.932 1242.85,657.709C1243.48,658.485 1248.03,657.239 1249.64,655.481C1251.26,653.704 1251.88,647.278 1252.57,647.05C1253.27,646.822 1252.61,653.236 1253.79,654.113C1254.97,654.991 1258.06,652.316 1259.64,652.316C1260.98,652.316 1263.32,653.122 1263.26,654.113C1263.19,655.105 1259.29,656.802 1259.26,658.266C1259.23,659.73 1262.91,661.148 1263.08,662.899C1263.24,664.65 1260.88,666.884 1260.24,668.77C1259.65,670.517 1258.76,672.736 1259.23,674.213C1259.7,675.689 1262.38,676.065 1263.08,677.63C1263.99,679.655 1263.94,683.495 1264.67,686.361C1265.44,689.365 1266.73,692.537 1267.68,695.65C1268.97,699.856 1270.7,707.966 1272.39,711.599C1273.52,714.012 1277.74,714.791 1277.84,717.445C1277.94,720.098 1274.95,724.344 1273,727.52C1271.06,730.697 1268.31,735.009 1266.16,736.506C1264.51,737.66 1262.08,736.048 1260.12,736.506C1257.26,737.173 1251.37,740.507 1249.03,740.507C1247.37,740.507 1247.55,737.247 1246.07,736.506C1244.53,735.738 1240.74,737.071 1239.79,735.899C1238.84,734.726 1240.79,731.582 1240.37,729.471C1239.93,727.226 1237.02,724.403 1237.16,722.432C1237.3,720.462 1239.98,719.335 1241.21,717.647C1242.99,715.204 1246.12,709.814 1247.86,707.776C1248.83,706.648 1251.25,706.851 1251.64,705.421C1252.03,703.986 1251.19,700.641 1250.22,699.168C1249.28,697.742 1247.5,696.618 1245.79,696.585C1244.04,696.551 1241.41,697.628 1239.74,698.965C1238.07,700.303 1236.22,702.932 1235.76,704.611C1235.36,706.088 1237.43,707.576 1236.98,709.041C1236.52,710.551 1234.55,712.346 1233,713.672C1231.41,715.039 1228.9,715.594 1227.43,717.242C1225.9,718.968 1224.06,721.475 1223.79,724.028C1223.51,726.631 1225.06,730.106 1225.76,732.861C1226.42,735.449 1227.02,738.333 1227.99,740.557C1228.88,742.601 1231.92,744.532 1231.59,746.202C1231.26,747.873 1227.62,748.845 1226.02,750.58C1224.35,752.382 1222.11,754.753 1221.61,757.011C1221.12,759.268 1223.66,762.179 1223.05,764.124C1222.45,766.069 1219.82,767.339 1217.99,768.679C1215.87,770.236 1212.29,774.515 1210.3,773.465C1208.31,772.415 1207.56,765.631 1206.05,762.379C1204.68,759.442 1202.52,756.222 1201.21,753.948C1200.21,752.206 1199.88,748.802 1198.17,748.735C1196.47,748.667 1193.65,752.455 1190.98,753.543C1188.04,754.741 1182.63,757.34 1180.53,755.923C1178.42,754.506 1178.88,748.094 1178.35,745.039C1177.92,742.573 1177.88,740.042 1177.34,737.596C1176.74,734.865 1173.24,731.353 1174.76,728.654Z" style="fill:none;stroke-width:4.09px;stroke:rgb(226,163,34);"/>
        </g>
        <g id="Mexico" transform="matrix(7.56066,0,0,7.56066,-1909.27,-4444.49)">
            <path d="M631.396,891.281C631.727,889.898 634.141,894.51 636.027,895.294C638.246,896.216 641.885,896.209 644.709,896.813C647.489,897.406 650.325,897.882 652.974,898.914C655.815,900.021 658.481,903.093 661.757,903.457C665.398,903.862 670.738,901.242 674.817,901.343C678.728,901.44 684.299,902.348 686.234,904.065C688.124,905.743 685.601,909.384 686.424,911.645C687.246,913.906 689.355,917.116 691.169,917.631C692.983,918.146 695.146,915.4 697.308,914.733C699.523,914.05 702.714,911.858 704.459,913.531C706.307,915.302 707.348,922.144 708.395,925.363C709.202,927.848 709.542,931.529 710.736,932.843C711.821,934.037 714.839,932.043 715.559,933.248C716.278,934.452 715.245,937.798 715.053,940.071C714.755,943.594 713.648,950.312 713.774,954.385C713.88,957.826 714.174,961.491 715.81,964.509C717.447,967.528 720.963,970.692 723.594,972.495C725.927,974.095 729.47,975.329 731.592,975.329C733.431,975.329 734.913,972.647 736.326,972.495C737.721,972.345 738.797,974.88 740.072,974.418C741.346,973.956 743.148,971.583 743.971,969.723C744.905,967.609 744.268,963.409 745.68,961.737C747.091,960.064 750.257,960.427 752.438,959.687C754.573,958.962 756.65,957.558 758.766,957.294C760.882,957.03 764.675,957.083 765.133,958.104C765.59,959.125 762.65,961.881 761.512,963.421C760.51,964.779 758.634,965.687 758.31,967.344C757.957,969.141 760.025,973.06 759.398,974.203C758.772,975.346 756.137,973.893 754.552,974.203C752.48,974.608 749.272,975.591 746.971,976.633C744.752,977.638 741.137,979.216 740.743,980.456C740.348,981.696 745.303,983.137 744.603,984.075C743.903,985.014 738.157,985.014 736.541,986.088C735.23,986.959 736.459,990.554 734.908,990.518C733.358,990.482 729.679,986.599 727.239,985.873C725.009,985.21 722.587,986.313 720.266,986.164C717.116,985.962 712.127,985.974 708.343,984.658C703.408,982.941 695.33,978.231 690.651,975.862C687.17,974.099 682.733,972.065 680.273,970.445C678.563,969.319 676.14,967.611 675.893,966.141C675.646,964.671 678.808,963.412 678.792,961.623C678.771,959.32 677.197,955.251 675.766,952.321C674.153,949.015 670.972,944.301 669.109,941.791C667.838,940.078 665.797,938.351 664.59,937.261C663.753,936.504 661.937,936.09 661.87,935.248C661.802,934.406 664.434,933.459 664.185,932.21C663.917,930.864 661.573,928.85 660.262,927.173C658.377,924.76 654.608,920.837 652.872,917.732C651.298,914.918 650.671,910.864 649.846,908.544C649.276,906.939 649.114,904.901 647.922,903.811C646.731,902.72 643.717,901.239 642.696,902.001C641.675,902.762 641.421,906.265 641.797,908.379C642.335,911.402 644.398,917.095 645.923,920.139C647.15,922.588 649.674,924.499 650.948,926.642C652.118,928.611 652.929,930.822 653.568,932.995C654.207,935.167 653.944,937.873 654.783,939.678C655.576,941.384 657.747,942.155 658.605,943.829C659.493,945.562 660.948,949.962 660.111,950.081C659.274,950.199 655.325,946.25 653.58,944.538C652.116,943.1 650.498,941.567 649.644,939.803C648.789,938.04 649.39,935.711 648.454,933.956C647.513,932.193 645.578,930.707 643.999,929.223C642.283,927.61 638.528,925.437 638.153,924.274C637.777,923.112 641.193,923.493 641.746,922.248C642.298,921.003 642.115,918.35 641.467,916.806C640.819,915.262 638.718,914.511 637.859,912.983C636.621,910.781 635.002,906.831 634.037,903.592C632.96,899.975 631.064,892.664 631.396,891.281Z" style="fill:none;stroke-width:3.31px;stroke:rgb(226,163,34);"/>
        </g>
        <g id="India" transform="matrix(9.74602,0,0,9.74602,-14137.5,-6478.02)">
            <path d="M1473.36,930.966C1473.59,929.268 1476.72,925.726 1478.4,924.765C1479.87,923.928 1482.12,926.244 1483.45,925.199C1485.72,923.403 1490.34,917.737 1492.07,913.989C1493.66,910.533 1492.09,904.85 1493.81,902.707C1495.53,900.565 1499.52,900.68 1502.4,901.134C1505.77,901.667 1510.81,904.194 1514.06,905.906C1516.87,907.391 1521.14,909.031 1521.87,911.403C1522.59,913.775 1517.53,917.831 1518.41,920.139C1519.3,922.447 1524.06,923.98 1527.2,925.252C1530.54,926.605 1535.42,927.323 1538.45,928.254C1540.8,928.978 1543.02,930.123 1545.37,930.839C1548.21,931.7 1553.22,933.211 1555.48,933.425C1556.7,933.541 1558.46,930.988 1558.93,932.123C1559.59,933.684 1558.91,940.105 1559.4,942.79C1559.76,944.749 1561.46,946.284 1561.86,948.233C1562.28,950.244 1562.81,953.053 1561.9,954.852C1560.99,956.651 1557.39,957.614 1556.4,959.027C1555.58,960.209 1556.6,962.038 1555.98,963.331C1555.37,964.624 1553.78,966.423 1552.71,966.785C1551.64,967.147 1550.53,964.913 1549.56,965.501C1548.49,966.152 1547.47,969.027 1546.27,970.689C1544.48,973.187 1541.34,978.02 1538.77,980.488C1536.52,982.651 1532.82,984.301 1530.85,985.498C1529.58,986.271 1527.42,986.255 1526.95,987.667C1526.37,989.397 1527.2,993.141 1527.38,995.875C1527.6,999.205 1528.53,1004.44 1528.25,1007.64C1528.02,1010.26 1527.16,1012.93 1525.68,1015.1C1524.11,1017.39 1520.51,1019.92 1518.81,1021.42C1517.74,1022.37 1516.47,1025.18 1515.5,1024.13C1514.3,1022.84 1513.3,1016.97 1511.63,1013.63C1509.76,1009.9 1505.79,1004.81 1504.27,1001.77C1503.29,999.809 1503.55,997.378 1502.55,995.424C1501.51,993.356 1499.05,991.659 1497.98,989.368C1496.61,986.454 1495.18,981.851 1494.36,977.941C1493.42,973.461 1492.61,966.689 1492.34,962.483C1492.13,959.226 1493.35,954.286 1492.74,952.701C1492.25,951.433 1489.49,951.921 1488.67,952.973C1487.85,954.025 1488.44,957.409 1487.8,959.013C1487.23,960.452 1486.21,962.233 1484.84,962.592C1483.46,962.95 1481.13,962.06 1479.54,961.163C1477.63,960.09 1473.4,957.617 1473.41,956.155C1473.42,954.694 1479.64,953.211 1479.59,952.394C1479.55,951.577 1474.43,952.069 1473.13,951.255C1472.02,950.551 1471.19,948.614 1471.83,947.512C1472.48,946.409 1475.31,945.189 1477.01,944.638C1478.61,944.119 1481.48,945.072 1482.03,944.204C1482.58,943.336 1481.11,940.917 1480.3,939.43C1479.46,937.888 1478.14,936.358 1476.99,934.948C1475.85,933.559 1473.12,932.663 1473.36,930.966Z" style="fill:none;stroke-width:2.57px;stroke-linecap:butt;stroke:rgb(226,163,34);"/>
        </g>
        <g id="EU" transform="matrix(5.96381,0,0,5.96381,-1209.2,-2820.02)">
            <path d="M1213.09,831.722C1214.14,831.781 1215.57,834.669 1216.84,836.105C1218.33,837.779 1220.2,840.255 1222.03,841.768C1223.76,843.198 1226.13,844.025 1227.84,845.185C1229.4,846.247 1230.74,847.603 1232.25,848.728C1234.13,850.12 1237.69,851.603 1239.09,853.538C1240.44,855.424 1240.16,858.094 1240.61,860.34C1241.04,862.555 1240.62,865.057 1241.74,867.017C1243.21,869.583 1247.34,873.329 1249.4,875.734C1251,877.604 1252.46,880.366 1254.08,881.444C1255.5,882.386 1258.1,882.578 1259.13,882.203C1260.13,881.837 1259.58,880.036 1260.24,879.197C1260.96,878.277 1263.11,877.977 1263.48,876.682C1263.86,875.388 1263.45,872.927 1262.49,871.429C1261.34,869.651 1257.83,867.523 1256.6,866.018C1255.77,865.006 1254.75,862.646 1255.1,862.395C1255.45,862.145 1257.61,864.185 1258.7,864.514C1259.65,864.8 1260.95,865.048 1261.68,864.373C1262.47,863.643 1262.2,860.903 1263.43,860.133C1264.67,859.362 1269.3,860.172 1269.1,859.753C1268.9,859.334 1261.88,858.389 1262.23,857.617C1262.58,856.844 1268.97,856.156 1271.19,855.117C1272.92,854.305 1274.77,852.864 1275.56,851.382C1276.34,849.9 1275.32,847.377 1275.92,846.225C1276.49,845.135 1278.6,845.56 1279.16,844.469C1279.83,843.19 1278.94,840.084 1279.91,838.552C1280.87,837.02 1284.25,836.469 1284.97,835.277C1285.65,834.149 1284.84,831.606 1284.21,831.4C1283.59,831.195 1282.5,833.696 1281.22,834.043C1279.59,834.483 1274.68,834.8 1274.43,834.043C1274.18,833.286 1278.13,830.693 1279.7,829.502C1281,828.516 1283.58,828.084 1283.83,826.892C1284.08,825.7 1282.27,823.747 1281.22,822.351C1280.01,820.737 1278.11,818.416 1276.55,817.208C1275.2,816.162 1273.25,815.208 1271.88,815.105C1270.61,815.009 1269.31,815.826 1268.36,816.591C1267.4,817.356 1267.35,819.313 1266.14,819.693C1264.49,820.21 1260.74,819.646 1258.45,819.693C1256.44,819.735 1253.72,820.347 1252.42,819.977C1251.45,819.699 1250.86,818.477 1250.68,817.477C1250.46,816.201 1250.41,813.917 1251.06,812.32C1252.02,809.961 1255.99,806.061 1256.44,803.319C1256.88,800.722 1254.31,798.455 1253.82,795.869C1253.32,793.261 1253.82,790.251 1253.45,787.673C1253.1,785.195 1253,781.795 1251.6,780.395C1250.2,778.995 1247.16,779.441 1245.07,779.272C1243.06,779.11 1241.05,779.366 1239.04,779.383C1236.77,779.401 1232.55,779.984 1231.48,779.383C1230.4,778.781 1233.5,776.001 1232.6,775.775C1231.7,775.548 1228.15,777.289 1226.08,778.022C1224.1,778.722 1221.64,779.564 1220.16,780.173C1219.16,780.591 1218.09,780.973 1217.25,781.677C1216.41,782.383 1216.15,784.62 1215.13,784.414C1214.12,784.209 1212.43,781.226 1211.16,780.442C1210.12,779.794 1208.55,779.487 1207.54,779.714C1206.53,779.941 1206.1,781.437 1205.09,781.803C1204.02,782.191 1202.39,782.418 1201.13,782.041C1199.59,781.582 1196.89,780.574 1195.85,779.05C1194.8,777.526 1194.66,774.35 1194.85,772.895C1195,771.785 1196.13,771.022 1197,770.316C1197.97,769.528 1200.81,768.94 1200.67,768.165C1200.54,767.389 1196.69,766.456 1196.19,765.664C1195.71,764.901 1197.3,764.229 1197.69,763.417C1198.24,762.289 1200.03,759.229 1199.47,758.892C1198.9,758.554 1195.85,760.561 1194.33,761.392C1192.95,762.144 1191.05,762.875 1190.32,763.877C1189.62,764.833 1190.12,766.235 1189.94,767.405C1189.76,768.668 1189.09,770.086 1189.2,771.454C1189.33,773.023 1190.22,775.357 1190.7,776.818C1191.08,777.979 1192.09,778.999 1192.06,780.22C1192.04,781.541 1191.53,783.864 1190.54,784.744C1189.56,785.625 1187.46,785.103 1186.13,785.504C1184.87,785.883 1183.77,786.669 1182.54,787.149C1181.25,787.653 1179.64,788.006 1178.41,788.526C1177.27,789.006 1175.85,789.475 1175.13,790.267C1174.42,791.051 1174.51,792.288 1174.12,793.273C1173.57,794.676 1172.7,797.278 1171.84,798.683C1171.12,799.87 1169.82,801.017 1168.96,801.705C1168.31,802.229 1167.38,802.301 1166.72,802.813C1165.88,803.462 1164.79,804.597 1163.95,805.598C1163.02,806.694 1162.33,808.345 1161.16,809.393C1159.92,810.509 1158.01,812.115 1156.5,812.289C1154.99,812.463 1153,810.158 1152.1,810.437C1151.2,810.717 1151.38,812.778 1151.09,813.966C1150.77,815.25 1150.78,817.817 1150.2,818.141C1149.62,818.465 1148.62,816.439 1147.61,815.91C1146.3,815.224 1143.73,813.924 1142.34,814.027C1141.02,814.124 1139.4,815.607 1139.25,816.527C1139.1,817.448 1140.47,818.777 1141.45,819.549C1142.57,820.433 1144.59,820.905 1145.96,821.828C1147.33,822.749 1149.08,823.554 1149.69,825.087C1150.32,826.635 1149.05,830.297 1149.69,831.114C1150.34,831.932 1153.04,829.129 1153.59,829.991C1154.13,830.853 1153.24,834.196 1152.97,836.288C1152.7,838.411 1152.08,840.931 1151.96,842.727C1151.85,844.17 1153.61,846.691 1152.21,847.06C1150.59,847.487 1145.61,845.491 1142.24,845.289C1138.73,845.079 1134.11,845.838 1131.14,845.796C1128.87,845.763 1126.56,844.997 1124.38,845.036C1122.26,845.075 1118.76,844.649 1118.1,846.033C1117.45,847.417 1120.24,850.808 1120.44,853.342C1120.65,855.875 1119.66,858.892 1119.35,861.236C1119.08,863.291 1119.03,865.648 1118.59,867.407C1118.21,868.946 1116.46,870.76 1116.74,871.789C1117.02,872.817 1119.93,872.435 1120.27,873.576C1120.61,874.718 1118.38,877.648 1118.77,878.639C1119.14,879.631 1121.27,879.29 1122.55,879.524C1124.37,879.859 1128.27,879.748 1129.71,880.647C1131,881.445 1129.94,884.516 1131.22,884.92C1132.49,885.323 1135.55,883.44 1137.37,883.068C1138.94,882.749 1140.56,882.794 1142.15,882.688C1144.06,882.562 1147.26,882.767 1148.86,882.309C1150.05,881.966 1150.86,880.829 1151.72,879.935C1152.79,878.828 1154.35,876.98 1155.25,875.664C1156.02,874.542 1157.1,873.314 1157.12,872.04C1157.13,870.767 1155.14,869.369 1155.34,868.021C1155.55,866.674 1157.14,865.124 1158.35,863.954C1159.86,862.498 1162.58,860.567 1164.41,859.288C1165.98,858.188 1168.39,857.895 1169.31,856.281C1170.23,854.668 1169.58,851.599 1169.93,849.606C1170.25,847.802 1170.03,845.138 1171.43,844.321C1172.84,843.503 1176.7,844.513 1178.36,844.7C1179.39,844.817 1180.36,845.574 1181.38,845.444C1182.91,845.252 1185.81,843.925 1187.51,843.546C1188.84,843.248 1190.48,843.522 1191.59,843.166C1192.58,842.849 1193.17,841.709 1194.17,841.411C1195.32,841.066 1197.34,840.234 1198.51,841.095C1199.78,842.034 1200.47,845.253 1201.8,847.043C1203.12,848.833 1204.86,850.291 1206.46,851.837C1208.1,853.411 1210.19,855.148 1211.62,856.488C1212.79,857.584 1213.6,859.167 1215.04,859.874C1216.7,860.689 1219.93,860.686 1221.59,861.377C1222.9,861.927 1224.16,862.893 1224.96,864.019C1225.75,865.145 1225.98,866.748 1226.33,868.132C1226.68,869.507 1227.58,871.154 1227.06,872.325C1226.54,873.496 1224.75,874.755 1223.2,875.158C1221.48,875.606 1218.89,874.921 1216.75,875.016C1214.52,875.113 1210.34,875.021 1209.83,875.744C1209.32,876.467 1212.2,878.415 1213.69,879.352C1215.25,880.33 1217.67,880.74 1219.18,881.613C1220.53,882.391 1221.96,884.947 1222.79,884.588C1223.62,884.23 1223.64,880.626 1224.18,879.463C1224.55,878.671 1225.32,878.109 1226.03,877.611C1226.92,876.994 1228.87,876.822 1229.51,875.759C1230.15,874.697 1229.73,872.74 1229.88,871.234C1230.06,869.454 1230.42,866.565 1230.61,865.08C1230.72,864.161 1230.41,862.617 1230.99,862.327C1231.57,862.037 1233.2,862.733 1234.09,863.34C1234.98,863.946 1235.65,865.302 1236.34,865.966C1236.88,866.501 1237.88,867.728 1238.19,867.327C1238.5,866.927 1238.64,864.545 1238.19,863.561C1237.73,862.578 1236.4,862.084 1235.45,861.425C1234.24,860.589 1232.45,859.496 1230.94,858.545C1229.02,857.333 1225.84,855.258 1223.9,854.148C1222.41,853.297 1220.46,853.126 1219.28,851.885C1217.77,850.309 1216.37,846.446 1214.87,844.688C1213.63,843.244 1210.97,842.823 1210.26,841.333C1209.55,839.843 1210.12,837.35 1210.59,835.748C1211.04,834.233 1212.05,831.662 1213.09,831.722Z" style="fill:none;stroke-width:4.19px;stroke:rgb(226,163,34);"/>
        </g>
        <g id="SA" transform="matrix(4.43233,0,0,4.43233,390.454,-1283.27)">
            <path d="M734.907,992.815C734.046,991.056 737.596,988.567 739.084,987.229C740.409,986.038 743.263,986.268 743.839,984.788C744.414,983.308 741.626,979.923 742.537,978.35C743.447,976.777 747.311,975.994 749.3,975.349C750.963,974.81 753.417,973.234 754.472,974.482C755.526,975.729 756.004,981.156 755.627,982.834C755.348,984.078 751.915,983.717 752.211,984.552C752.506,985.387 755.351,987.81 757.399,987.844C760.186,987.889 765.715,984.631 768.934,984.824C771.871,984.999 775.338,986.983 776.71,988.999C778.081,991.015 777.436,994.289 777.161,996.919C776.806,1000.33 774.389,1006.41 774.575,1009.43C774.714,1011.67 776.527,1013.64 778.283,1015.04C780.438,1016.74 784.837,1019.3 787.503,1019.67C789.881,1019.99 791.887,1017.38 794.283,1017.24C796.808,1017.1 800.71,1018.03 802.653,1018.81C804.06,1019.38 804.845,1022.4 805.945,1021.96C807.045,1021.52 807.94,1017.78 809.254,1016.19C810.511,1014.68 812.174,1013.52 813.829,1012.45C816.397,1010.79 821.441,1007.79 824.659,1006.25C827.366,1004.96 831.481,1002.65 833.138,1003.23C834.796,1003.81 832.701,1008.98 834.603,1009.72C836.504,1010.47 842.504,1007.21 844.547,1007.7C846.31,1008.11 845.124,1012.1 846.861,1012.61C848.974,1013.24 854.777,1011.1 857.221,1011.46C859.015,1011.72 859.715,1014.89 861.525,1014.78C864.623,1014.6 874.001,1010.24 875.809,1010.34C877.616,1010.43 871.864,1014.05 872.373,1015.36C872.882,1016.67 876.839,1017 878.863,1018.22C881.243,1019.66 884.637,1022.11 886.656,1023.99C888.365,1025.58 889.415,1027.94 890.976,1029.5C892.472,1031 893.962,1032.87 896.021,1033.35C899.369,1034.14 907.48,1033.72 911.062,1034.22C913.307,1034.53 915.786,1034.89 917.518,1036.35C919.986,1038.44 924.048,1043.45 925.871,1046.71C927.428,1049.5 929.398,1052.88 928.457,1055.93C927.327,1059.6 919.742,1066.75 919.092,1068.68C918.497,1070.44 923.068,1067.98 924.551,1067.52C925.755,1067.15 927.342,1066.64 927.987,1065.95C928.582,1065.31 927.634,1063.74 928.421,1063.36C929.313,1062.93 931.944,1063.36 933.339,1063.36C934.49,1063.36 936.102,1062.44 936.792,1063.36C937.512,1064.33 936.993,1068.45 937.66,1069.13C938.326,1069.81 939.615,1067.61 940.788,1067.43C942.488,1067.17 946.415,1067.07 947.859,1067.58C948.897,1067.94 948.487,1070.13 949.448,1070.47C950.409,1070.81 952.739,1068.62 953.625,1069.6C954.511,1070.58 953.809,1075.49 954.765,1076.35C955.72,1077.2 957.75,1074.95 959.358,1074.75C961.422,1074.5 964.552,1074.81 967.15,1074.83C969.937,1074.84 973.827,1074.35 976.081,1074.83C977.848,1075.2 979.278,1076.56 980.674,1077.7C982.371,1079.09 984.548,1081.84 986.262,1083.18C987.67,1084.28 989.314,1085.33 990.963,1085.76C992.611,1086.19 994.834,1084.64 996.152,1085.76C997.572,1086.97 999.225,1090.36 999.48,1093C999.772,1096.03 999.275,1100.77 997.906,1103.97C996.538,1107.17 992.93,1109.83 991.27,1112.18C989.968,1114.02 988.716,1116.11 987.944,1118.07C987.208,1119.95 987.266,1123.74 986.643,1123.99C986.019,1124.23 984.964,1119.09 984.201,1119.56C983.439,1120.02 982.272,1124.27 982.067,1126.77C981.859,1129.31 983.02,1132.12 982.953,1134.82C982.884,1137.62 982.154,1141.33 981.651,1143.59C981.283,1145.24 980.15,1146.95 979.933,1148.36C979.745,1149.59 980.698,1150.87 980.349,1152.07C979.825,1153.86 977.862,1156.99 976.786,1159.12C975.821,1161.04 974.99,1163.02 973.895,1164.87C972.702,1166.88 972.055,1170.43 969.627,1171.18C966.981,1171.99 960.668,1169.11 958.019,1169.73C955.835,1170.25 955.463,1173.49 953.733,1174.92C951.795,1176.52 948.256,1178.05 946.391,1179.33C945.002,1180.29 943.39,1181.15 942.54,1182.61C941.561,1184.28 940.349,1187.25 940.515,1189.39C940.681,1191.53 943.511,1193.69 943.535,1195.46C943.559,1197.23 941.595,1198.47 940.66,1200C939.249,1202.31 936.504,1208.16 935.072,1209.29C934.056,1210.1 933.146,1206.24 932.07,1206.82C930.994,1207.39 929.688,1210.71 928.618,1212.73C927.461,1214.91 926.061,1217.4 925.128,1219.89C924.04,1222.79 923.531,1227.68 922.09,1230.12C920.881,1232.17 918.861,1234.37 916.486,1234.55C913.726,1234.76 908.191,1232.56 905.53,1231.39C903.601,1230.54 901.355,1227.41 900.52,1227.54C899.685,1227.66 899.734,1230.9 900.52,1232.13C901.307,1233.35 904.261,1233.37 905.24,1234.88C906.22,1236.39 905.578,1239.63 906.398,1241.19C907.147,1242.61 910.226,1242.67 910.157,1244.21C910.088,1245.74 907.749,1248.63 905.981,1250.37C903.944,1252.38 901.056,1255.35 897.934,1256.27C894.812,1257.18 888.837,1253.49 887.249,1255.85C885.661,1258.21 889.937,1268.48 888.407,1270.4C886.876,1272.33 880.406,1267.97 878.065,1267.38C876.855,1267.08 874.776,1265.7 874.357,1266.88C873.815,1268.4 873.628,1275.27 874.809,1276.52C875.99,1277.76 880.052,1274.01 881.444,1274.35C882.836,1274.68 883.565,1277.17 883.162,1278.54C882.758,1279.9 880.116,1281.32 879.022,1282.54C878.108,1283.55 876.734,1284.57 876.598,1285.85C876.463,1287.13 878.15,1288.99 878.208,1290.22C878.258,1291.31 877.77,1292.53 876.941,1293.24C875.941,1294.1 873.665,1294.47 872.204,1295.37C870.742,1296.28 868.698,1297.48 868.171,1298.68C867.644,1299.88 868.217,1301.53 869.039,1302.57C869.925,1303.69 871.884,1304.88 873.488,1305.43C875.091,1305.97 877.776,1304.87 878.659,1305.84C879.543,1306.81 879.382,1309.54 878.786,1311.24C878.183,1312.96 875.912,1314.29 875.043,1316.16C874.079,1318.23 873.823,1321.83 873,1323.68C872.378,1325.08 870.546,1325.78 870.107,1327.24C869.582,1328.99 869.537,1332.05 869.853,1334.18C870.159,1336.25 871.162,1338.15 872.005,1340.06C873.012,1342.34 873.962,1345.69 875.893,1347.86C877.864,1350.07 881.16,1352.14 883.83,1353.33C886.342,1354.46 891.911,1353.72 891.911,1355.03C891.911,1356.35 887.217,1361.04 883.83,1361.22C879.301,1361.45 870.09,1359.03 864.738,1356.46C859.679,1354.03 855.075,1350.28 851.721,1345.78C848.226,1341.08 845.495,1334.47 843.766,1328.31C841.983,1321.96 840.978,1314.6 841.018,1307.65C841.063,1299.87 843.722,1287.06 844.038,1281.63C844.167,1279.41 843.797,1276.09 842.916,1275.07C842.036,1274.04 839.894,1276.29 838.757,1275.48C837.295,1274.44 834.176,1271 834.146,1268.85C834.116,1266.69 838.387,1264.9 838.577,1262.55C838.767,1260.21 836.313,1257.18 835.285,1254.78C834.337,1252.56 832.192,1249.97 832.412,1248.14C832.632,1246.32 835.792,1245.64 836.605,1243.81C837.904,1240.87 839.818,1235.03 840.204,1230.52C840.589,1226 839.073,1221.32 838.92,1216.7C838.733,1211.08 839.012,1203.43 839.082,1196.79C839.179,1187.73 840.002,1170.53 839.498,1162.35C839.191,1157.36 839.241,1151.61 836.062,1147.74C832.594,1143.53 822.974,1139.87 818.689,1137.06C815.796,1135.16 811.6,1132.84 810.353,1130.87C809.341,1129.28 812.022,1126.98 811.203,1125.29C809.639,1122.05 803.543,1115.3 800.969,1111.44C798.993,1108.47 797.71,1104.85 795.763,1102.09C793.903,1099.45 791.221,1096.52 789.29,1094.89C787.83,1093.66 784.697,1094.16 784.173,1092.33C783.606,1090.34 784.479,1085.39 785.89,1082.98C787.3,1080.56 792.351,1079.36 792.635,1077.82C792.918,1076.29 788.141,1075.52 787.59,1073.79C787.038,1072.06 788.533,1069.49 789.325,1067.45C790.35,1064.8 792.358,1060.57 793.738,1057.92C794.885,1055.72 795.941,1053.41 797.608,1051.57C799.597,1049.39 804.683,1046.52 805.672,1044.79C806.363,1043.58 803.858,1042.55 803.538,1041.2C802.965,1038.77 803.031,1033.22 802.236,1030.26C801.574,1027.8 800.616,1024.15 798.766,1023.44C796.915,1022.74 793.82,1026.07 791.134,1026.03C787.871,1025.97 782.543,1024.46 779.183,1023.13C776.193,1021.96 773.404,1019.49 770.975,1018.07C768.89,1016.85 766.006,1016.35 764.61,1014.6C763.215,1012.85 763.943,1009.59 762.603,1007.55C761.112,1005.27 758.48,1002.45 755.661,1000.95C752.603,999.321 747.712,999.141 744.253,997.786C740.968,996.498 735.769,994.575 734.907,992.815Z" style="fill:none;stroke-width:5.64px;stroke-linecap:butt;stroke:rgb(226,163,34);"/>
        </g>
        <g id="Africa" transform="matrix(1.19837,0,0,1.19837,170.281,-111.108)">
            <path d="M4339.23,2363.21C4344.27,2354.91 4349.9,2346.72 4357.08,2340.18C4365.58,2332.44 4381.19,2324.32 4390.23,2316.77C4398.03,2310.26 4406.87,2303.96 4411.38,2294.86C4416.42,2284.68 4413.72,2267.23 4420.49,2255.64C4427.74,2243.21 4446.72,2228.53 4454.9,2220.32C4459.67,2215.54 4465.51,2211.77 4469.59,2206.39C4475.5,2198.61 4484.2,2176.35 4490.36,2173.6C4496.52,2170.86 4499.01,2189.21 4506.56,2189.93C4514.11,2190.65 4525.45,2180.32 4535.67,2177.9C4548.41,2174.89 4567.78,2176.42 4583,2171.83C4600.34,2166.6 4626.78,2150.26 4639.71,2146.53C4646.46,2144.58 4653.56,2149.45 4660.59,2149.44C4670.44,2149.42 4686.1,2147.73 4698.81,2146.4C4711.75,2145.05 4729.11,2140.68 4738.18,2141.34C4744.01,2141.76 4752.12,2144.59 4753.23,2150.32C4754.39,2156.32 4746.93,2168.07 4745.13,2177.28C4743.28,2186.79 4738.42,2198.08 4742.09,2207.41C4745.77,2216.73 4758.99,2229.41 4767.16,2233.23C4774.44,2236.64 4783.06,2230.75 4791.09,2230.32C4800.11,2229.84 4816.44,2225.78 4821.34,2230.32C4826.23,2234.86 4814.61,2251.54 4820.45,2257.53C4826.29,2263.53 4846.24,2263.32 4856.39,2266.27C4864.88,2268.74 4873.69,2275.26 4881.33,2275.26C4888.91,2275.26 4898.23,2272.16 4902.22,2266.27C4906.21,2260.39 4898.67,2245.83 4905.26,2239.95C4912.41,2233.55 4935.96,2225.94 4945.11,2227.92C4954.27,2229.9 4952.25,2246.74 4960.18,2251.85C4968.7,2257.33 4984.42,2258.35 4996.25,2260.83C5007.82,2263.27 5019.41,2267.62 5031.19,2266.78C5044.67,2265.84 5062.97,2255.56 5077.12,2255.13C5090.46,2254.74 5105.09,2261.7 5116.1,2264.25C5125.13,2266.34 5138.68,2264.39 5143.19,2270.45C5147.71,2276.5 5144.21,2291.56 5143.19,2300.56C5142.27,2308.74 5143.82,2328.05 5137.12,2324.49C5130.41,2320.93 5103.27,2274.31 5102.95,2279.19C5102.64,2284.06 5126.8,2334.45 5135.22,2353.73C5141.22,2367.47 5149.2,2384.72 5153.44,2394.86C5156.15,2401.32 5156.68,2408.84 5160.66,2414.6C5166.42,2422.93 5184.43,2435.49 5188,2444.85C5191.15,2453.14 5180.19,2462.78 5182.05,2470.79C5183.9,2478.81 5193.99,2485.16 5199.12,2492.95C5205.33,2502.35 5210.7,2517.12 5219.25,2527.25C5228.13,2537.77 5241.87,2545.97 5252.42,2556.1C5262.97,2566.23 5276.51,2579.18 5282.54,2588C5286.66,2594.02 5284.77,2604.04 5288.61,2609.02C5292.45,2614 5299.22,2618.45 5305.57,2617.88C5319.2,2616.66 5354.57,2605.9 5370.37,2601.68C5380.47,2598.98 5394.84,2587.38 5400.37,2592.57C5405.9,2597.76 5405.03,2621.76 5403.53,2632.82C5402.24,2642.32 5395.4,2650.19 5391.38,2658.9C5386.53,2669.4 5382.46,2684.94 5374.42,2695.85C5365.09,2708.49 5345.73,2723.6 5335.44,2734.72C5327.29,2743.52 5321.21,2754.16 5312.65,2762.57C5301.11,2773.9 5278.45,2790.98 5266.19,2802.68C5256.43,2812.01 5247.3,2822.07 5239.12,2832.81C5230.93,2843.55 5220.85,2856.17 5217.09,2867.12C5213.69,2877.01 5216.66,2888.03 5216.58,2898.49C5216.49,2909.08 5213.54,2921.47 5216.58,2930.65C5219.62,2939.82 5232.02,2944.83 5234.81,2953.56C5237.59,2962.29 5234.49,2973.28 5233.27,2983.04C5232.02,2992.97 5227.3,3002.93 5227.32,3013.17C5227.34,3024.05 5240.64,3038.91 5233.39,3048.36C5224.66,3059.75 5187.18,3071.55 5174.93,3081.51C5167.02,3087.93 5167.19,3101.03 5159.86,3108.1C5152.02,3115.68 5129.34,3116.75 5127.85,3126.96C5126.35,3137.17 5147.54,3157.59 5150.87,3169.36C5153.45,3178.46 5151.3,3190.71 5147.84,3197.58C5144.54,3204.14 5136.04,3206.3 5130.11,3210.62C5123.88,3215.16 5114.89,3218.04 5110.48,3224.8C5104.24,3234.37 5100.98,3254.89 5092.64,3268.08C5080.56,3287.21 5053.78,3321.59 5037.96,3339.59C5026.01,3353.18 5012.64,3369.94 4997.72,3376.04C4982.81,3382.14 4962.68,3374.16 4948.48,3376.16C4935.98,3377.93 4923.55,3387.58 4912.54,3388.06C4902.07,3388.53 4888.95,3384.58 4882.41,3379.08C4875.87,3373.57 4875.8,3363.22 4873.3,3355.02C4869.61,3342.94 4865.73,3321.46 4860.26,3306.55C4855.04,3292.3 4846.82,3278.23 4840.51,3265.53C4834.64,3253.72 4825.82,3243.08 4822.41,3230.34C4817.91,3213.55 4819.73,3184.44 4813.56,3164.78C4807.61,3145.86 4792.86,3128.8 4785.33,3112.39C4778.5,3097.51 4768.36,3082.68 4768.36,3066.31C4768.36,3049.29 4778.15,3023.45 4785.33,3010.24C4790.88,3000.03 4809.55,2996.8 4811.4,2987.08C4813.26,2977.35 4801.3,2963.62 4796.47,2951.89C4791.66,2940.21 4786.59,2928.63 4782.41,2916.71C4776.21,2898.99 4768.64,2862.95 4759.25,2845.57C4751.82,2831.81 4729.97,2825.58 4726.09,2812.41C4722.2,2799.25 4733.82,2782.06 4735.96,2766.58C4738.11,2751.04 4744.02,2728.72 4739,2719.13C4733.98,2709.53 4716.41,2709.68 4705.85,2709C4695.58,2708.35 4684.14,2717.86 4675.59,2715.08C4667.05,2712.29 4664.32,2695.74 4654.58,2692.29C4643.86,2688.49 4625.58,2690.23 4611.3,2692.29C4595.03,2694.63 4574.59,2703.49 4556.99,2706.34C4540.1,2709.08 4521.14,2707.86 4505.74,2709.38C4491.94,2710.74 4478.33,2717.34 4464.6,2715.45C4447.66,2713.13 4420.91,2707.35 4404.1,2695.45C4387.29,2683.55 4377.85,2660.62 4363.74,2644.06C4349.63,2627.5 4322.94,2608.2 4319.43,2596.09C4316.29,2585.22 4345.27,2582.43 4342.72,2571.4C4340.07,2559.91 4307.17,2538.15 4303.48,2527.1C4300.54,2518.29 4319.48,2514.31 4320.57,2505.09C4321.96,2493.36 4311.64,2473.11 4311.83,2456.73C4312.04,2438.93 4317.27,2413.85 4321.83,2398.26C4325.5,2385.74 4333.36,2372.89 4339.23,2363.21Z" style="fill:none;stroke-width:20.86px;stroke:rgb(226,163,34);"/>
        </g>
        <g id="Japan" transform="matrix(0.930312,0,0,0.950674,9.7909,759.864)">
            <path d="M2258.29,1091.69C2255.56,1077.01 2236.12,1051.4 2240.06,1047.52C2244.01,1043.64 2269.76,1060.61 2281.95,1068.41C2293.36,1075.71 2301.08,1088.36 2313.22,1094.36C2326.36,1100.86 2353.35,1100.37 2360.8,1107.39C2367.89,1114.08 2362.08,1129.16 2357.89,1136.51C2353.69,1143.85 2338.61,1143.02 2335.62,1151.44C2332.41,1160.47 2345.72,1188.13 2338.66,1190.68C2331.59,1193.24 2307.86,1170.75 2293.22,1166.76C2279.58,1163.04 2258.4,1163.09 2250.82,1166.76C2244.16,1169.99 2243,1183.12 2247.79,1188.79C2253.31,1195.32 2274.68,1196.4 2283.98,1205.99C2293.39,1215.69 2298.67,1232.8 2304.23,1247C2310.6,1263.29 2319.76,1284.02 2322.21,1303.7C2325.67,1331.54 2325.54,1385.75 2324.99,1414.06C2324.61,1433.98 2321.43,1467.95 2318.92,1473.54C2316.41,1479.13 2313.26,1448.92 2309.93,1447.59C2306.6,1446.26 2303.52,1460.25 2298.92,1465.56C2293.75,1471.54 2286.57,1481.43 2278.91,1483.41C2271.26,1485.4 2261.29,1479.47 2252.97,1477.46C2244.97,1475.54 2232.04,1468.08 2229.05,1471.39C2226.05,1474.7 2235.94,1488.52 2235,1497.34C2233.97,1507.03 2227.93,1529.45 2222.85,1529.49C2217.76,1529.54 2211.92,1502.76 2204.49,1497.59C2197.33,1492.6 2186.84,1496.63 2178.3,1498.48C2169.15,1500.46 2159.4,1506.57 2149.57,1509.49C2138.4,1512.8 2122.75,1516.88 2111.34,1518.36C2101.34,1519.65 2083.65,1523.04 2081.1,1518.36C2078.54,1513.67 2089.12,1498.3 2096.02,1490.25C2103.43,1481.62 2114.16,1472.04 2125.52,1466.58C2139.53,1459.84 2167.99,1458.01 2180.08,1449.86C2190.26,1443.01 2193.91,1429.28 2198.04,1417.72C2202.54,1405.15 2202.71,1376.96 2207.03,1374.43C2211.36,1371.9 2217.35,1401.69 2224,1402.53C2230.64,1403.38 2241.78,1389.03 2246.91,1379.49C2253.6,1367.05 2261.59,1345.83 2264.12,1327.86C2266.82,1308.73 2264.76,1282.73 2263.11,1264.69C2261.72,1249.45 2260.09,1230.5 2254.25,1219.64C2249.03,1209.94 2234.42,1206.37 2228.05,1199.51C2222.55,1193.6 2214.34,1186.39 2216.02,1178.5C2217.79,1170.17 2231.95,1156.66 2238.68,1149.51C2243.83,1144.04 2254,1142.71 2256.41,1135.6C2259.68,1125.96 2260.96,1106.09 2258.29,1091.69Z" style="fill:none;stroke-width:26.58px;stroke:rgb(226,163,34);"/>
        </g>
        <g id="China" transform="matrix(1,0,0,1,8.14624,768.431)">
            <path d="M471.178,1320.48C473.897,1311.61 504.605,1306.47 517.746,1299.21C529.19,1292.89 540.3,1281.64 550.024,1276.94C558.046,1273.06 567.303,1269.49 576.089,1270.99C588.007,1273.01 605.227,1288.95 621.531,1289.09C639.187,1289.24 669.453,1269.88 682.025,1271.89C692.83,1273.61 690.613,1299.6 696.963,1301.11C703.314,1302.63 720.8,1291.19 720.128,1280.99C719.263,1267.87 697.471,1236.67 691.775,1222.39C688.353,1213.82 680.549,1198.49 685.95,1195.3C691.35,1192.12 714.79,1208 724.178,1203.28C733.566,1198.56 738.756,1179.03 742.28,1166.96C745.662,1155.38 735.466,1137.86 745.317,1130.88C758.079,1121.86 809.949,1119.64 818.85,1112.78C826.927,1106.56 799.736,1098.83 798.723,1089.76C797.71,1080.69 807.33,1066.78 812.774,1058.37C817.604,1050.9 824.089,1036.09 831.388,1039.25C838.686,1042.42 848.867,1069.51 856.566,1077.35C861.901,1082.79 870.056,1085.14 877.58,1086.34C890.175,1088.35 921.525,1081.7 932.135,1089.38C942.744,1097.06 937.399,1120.01 941.237,1132.41C944.62,1143.35 946.112,1157.56 955.163,1163.8C964.213,1170.04 982.589,1165.69 995.541,1169.88C1015.39,1176.29 1055.76,1190.35 1074.26,1202.27C1088.47,1211.42 1091.77,1233.51 1106.54,1241.38C1121.31,1249.25 1143.9,1249.05 1162.86,1249.48C1185.68,1250.01 1222.13,1241.36 1243.48,1244.55C1261.02,1247.16 1275.26,1262.25 1290.93,1268.6C1305.96,1274.69 1323.25,1283.29 1337.51,1282.64C1351.77,1281.98 1365.69,1269.69 1376.49,1264.67C1385.12,1260.66 1393.31,1255.59 1402.32,1252.52C1412.68,1249 1426.51,1246.41 1438.65,1243.53C1452.78,1240.18 1475.53,1237.27 1487.11,1232.39C1495.64,1228.81 1507.1,1223.47 1508.13,1214.29C1509.16,1205.12 1497.98,1187.7 1493.32,1177.34C1489.43,1168.7 1474.76,1159.94 1480.15,1152.15C1486.06,1143.63 1511.85,1133.37 1528.76,1126.2C1545.76,1118.98 1567.84,1117.21 1582.16,1108.86C1595.46,1101.1 1602.67,1083.88 1614.7,1076.08C1626.46,1068.45 1651.42,1073.08 1654.33,1062.03C1657.24,1050.97 1641.23,1013.63 1632.18,1009.75C1623.13,1005.87 1608.91,1033.42 1600.02,1038.74C1593.92,1042.39 1584.62,1045.86 1578.88,1041.65C1572.68,1037.1 1564.02,1022.75 1562.82,1011.4C1561.62,1000.01 1565.84,983.686 1571.68,973.308C1577.51,962.954 1592.47,959.711 1597.87,949.131C1604.16,936.834 1606.14,915.852 1609.39,899.525C1612.58,883.503 1615,862.795 1617.36,851.171C1618.84,843.896 1626.19,836.724 1623.56,829.781C1620.78,822.42 1602.7,814.661 1600.65,807.004C1598.6,799.347 1604.06,788.314 1611.29,783.839C1621.88,777.278 1645.79,768.787 1664.2,767.638C1683.8,766.415 1712.04,770.34 1728.87,776.501C1743.25,781.762 1755.64,792.642 1765.19,804.603C1777.07,819.475 1789.62,847.993 1800.13,865.734C1809.19,881.028 1820.55,901.641 1828.23,911.05C1832.69,916.511 1839.31,920.746 1846.21,922.189C1855.09,924.045 1871.45,920.207 1881.51,922.189C1890.59,923.976 1899.99,927.587 1906.58,934.078C1918.47,945.807 1939.33,986.145 1952.89,992.558C1965.06,998.31 1978.76,980.595 1987.96,972.557C1996.66,964.953 1999.88,940.637 2008.09,944.329C2016.29,948.021 2031.34,979.416 2037.2,994.709C2042.19,1007.73 2046.27,1023.14 2043.28,1036.09C2040.28,1049.04 2028.19,1063.68 2019.23,1072.42C2011.15,1080.28 1993.42,1078.26 1989.47,1088.49C1985.53,1098.72 1994.72,1118.58 1995.55,1133.8C1996.41,1149.72 1996.46,1173.02 1994.66,1184.05C1993.66,1190.22 1988.12,1200.16 1984.79,1199.99C1981.45,1199.82 1980.44,1179.89 1974.66,1183.04C1968.46,1186.41 1956.19,1207.56 1947.57,1220.24C1938.94,1232.94 1932.27,1247.05 1922.88,1259.23C1911.3,1274.28 1892.82,1295.55 1878.08,1310.49C1864.46,1324.28 1846.3,1339.5 1834.4,1348.84C1825.77,1355.62 1811,1374.04 1806.67,1366.57C1802.35,1359.1 1809.96,1317.77 1808.43,1304.04C1807.6,1296.53 1805.09,1284.45 1797.55,1284.17C1789.38,1283.88 1770.85,1294.05 1759.44,1302.26C1747.61,1310.79 1736.18,1326.38 1726.54,1335.3C1718.64,1342.62 1702.91,1347.53 1701.6,1355.82C1700.29,1364.11 1711.69,1377.84 1718.69,1385.06C1725.34,1391.9 1736.96,1392.74 1743.63,1399.11C1750.3,1405.48 1752.48,1422.58 1758.68,1423.27C1764.88,1423.97 1770.93,1404.19 1780.83,1403.27C1795.37,1401.92 1839.87,1409.18 1845.9,1415.17C1851.93,1421.16 1826.03,1430.51 1817.04,1439.23C1807.73,1448.23 1796.53,1457.43 1790.07,1469.23C1783.57,1481.1 1774.86,1501.41 1778.05,1510.48C1781.23,1519.55 1800.04,1517.07 1809.19,1523.64C1819.25,1530.88 1831.56,1543.98 1838.41,1553.9C1844.4,1562.55 1846.37,1573.38 1850.32,1583.14C1854.32,1593.05 1861.41,1603.8 1862.47,1613.38C1863.48,1622.6 1861.24,1633.93 1856.64,1640.59C1852.04,1647.26 1833.62,1649.37 1834.87,1653.38C1836.11,1657.39 1856.83,1660.28 1864.11,1664.65C1870.04,1668.21 1880.09,1672.84 1878.53,1679.58C1875.58,1692.37 1854.59,1721.64 1846.38,1741.34C1838.82,1759.49 1835.49,1781.04 1829.29,1797.78C1823.68,1812.92 1816.44,1827.43 1809.16,1841.84C1801.8,1856.41 1795,1875.84 1785.12,1885.24C1776.07,1893.87 1760.78,1894.1 1749.93,1898.28C1739.91,1902.14 1729.67,1911.28 1720.06,1910.31C1710.44,1909.34 1698.18,1888.22 1692.22,1892.46C1686.25,1896.7 1695.17,1928.05 1684.24,1935.75C1673.31,1943.45 1645.65,1937.02 1626.65,1938.66C1607.76,1940.29 1586.83,1945.97 1570.2,1945.61C1555.46,1945.29 1538.92,1942.56 1526.91,1936.51C1515.13,1930.57 1510.23,1914.67 1498.18,1909.3C1484.73,1903.28 1460.67,1898.55 1446.15,1900.43C1432.79,1902.16 1423.27,1914.79 1411.09,1920.56C1397.25,1927.12 1377.81,1938.58 1363.12,1939.79C1349.21,1940.92 1333.63,1936.81 1323,1927.77C1309.94,1916.68 1292.5,1889.31 1284.78,1873.22C1278.61,1860.36 1277.02,1844.6 1276.68,1831.2C1276.35,1818.26 1281.89,1804.05 1282.75,1792.85C1283.49,1783.25 1288.38,1769.28 1281.87,1763.98C1275.35,1758.69 1253.65,1769.01 1243.64,1761.07C1233.24,1752.82 1232.88,1720.77 1219.46,1714.5C1206.04,1708.24 1179.09,1719 1163.14,1723.49C1149.26,1727.4 1136.9,1735.46 1123.79,1741.47C1110.06,1747.75 1096.5,1760.24 1080.75,1761.22C1055.22,1762.8 1002.42,1758.88 970.636,1750.97C941.913,1743.82 913.555,1722.27 890.015,1713.75C870.521,1706.69 848.436,1708.03 829.397,1699.83C809.232,1691.13 784.596,1674.66 769.028,1661.61C755.753,1650.47 741.98,1633.74 735.988,1621.48C731.078,1611.44 737.181,1598.47 733.075,1588.08C727.569,1574.13 714.17,1552.42 702.948,1537.82C692.241,1523.89 678.211,1510.91 665.744,1500.49C654.167,1490.82 641.307,1480.18 628.141,1475.3C615.14,1470.49 597.911,1468.49 586.75,1471.25C576.116,1473.89 569.254,1493.32 561.174,1491.89C553.094,1490.46 547.302,1471.12 538.271,1462.65C529.137,1454.09 514.028,1441.24 506.369,1440.5C498.863,1439.78 497.465,1452.72 492.317,1458.23C486.009,1464.98 477.375,1480.04 468.516,1481.01C459.657,1481.99 446.352,1472.77 439.162,1464.05C430.726,1453.82 416.885,1431.07 417.898,1419.63C418.91,1408.2 435.57,1402.84 445.238,1395.46C455.32,1387.76 469.026,1380.6 478.392,1373.43C486.642,1367.11 502.633,1361.25 501.431,1352.43C500.229,1343.6 468.459,1329.35 471.178,1320.48Z" style="fill:none;stroke-width:25px;stroke:rgb(226,163,34);"/>
        </g>
    </g>
</svg>
